<svg width="433" height="118" viewBox="0 0 433 118" fill="none" xmlns="http://www.w3.org/2000/svg">
<path d="M1.52539 38.9928C1.92999 37.5241 2.3346 36.106 2.84035 34.7386C5.21739 27.9014 8.65651 21.9251 13.1577 16.8098C17.6589 11.6946 23.1716 7.69355 29.6959 4.80672C36.2201 1.9199 43.6041 0.451172 51.7973 0.451172C60.0916 0.451172 67.4756 1.9199 73.9493 4.80672C80.4229 7.69355 85.9356 11.6946 90.4368 16.8098C94.938 21.9251 98.3772 27.9014 100.754 34.7386C101.26 36.1567 101.665 37.5747 102.069 38.9928H77.9953C77.0344 36.3086 75.77 33.8269 74.2527 31.5985C71.9768 28.1546 68.9423 25.4197 65.2503 23.3432C61.5583 21.3174 57.0571 20.2538 51.7973 20.2538C46.4869 20.2538 42.0362 21.2667 38.3442 23.3432C34.6522 25.369 31.6683 28.1546 29.3418 31.5985C27.8246 33.8776 26.6108 36.3592 25.5993 38.9928H1.52539ZM120.327 38.9928V3.03411H177.983C182.787 3.03411 187.086 3.79382 190.93 5.36385C194.774 6.93388 198.061 9.061 200.792 11.7452C203.523 14.4295 205.647 17.5695 207.064 21.1148C208.53 24.66 209.238 28.5091 209.238 32.5608C209.238 34.8399 209.087 36.967 208.733 38.9928H185.62C185.721 38.0812 185.771 37.1696 185.771 36.1567C185.771 30.9401 184.406 27.1923 181.725 24.8626C179.045 22.5329 174.999 21.3174 169.587 21.3174H143.844V38.9928H120.327ZM226.08 38.9928C226.484 37.5241 226.889 36.106 227.395 34.7386C229.772 27.9014 233.211 21.9251 237.712 16.8098C242.213 11.6946 247.726 7.69355 254.25 4.80672C260.775 1.9199 268.159 0.451172 276.352 0.451172C281.864 0.451172 287.175 1.26152 292.283 2.93284C297.442 4.60416 302.044 6.98451 306.191 10.2259C310.338 13.4166 313.727 17.367 316.458 22.0771C319.139 26.7871 320.808 32.1556 321.414 38.2838H298.959C297.543 32.3076 294.862 27.8 290.867 24.8119C286.871 21.8238 282.016 20.3044 276.352 20.3044C271.041 20.3044 266.591 21.3173 262.899 23.3938C259.207 25.4197 256.223 28.2052 253.896 31.6491C252.379 33.9282 251.165 36.4099 250.154 39.0435H226.08V38.9928ZM378.16 38.9928H352.114L330.518 3.03411H356.868L378.16 38.9928ZM411.287 38.9928H385.595L406.735 3.03411H432.933L411.287 38.9928Z" fill="#FFB796"/>
<path d="M102.322 79.5098C101.867 81.1811 101.412 82.8018 100.805 84.3718C98.4281 91.1077 94.989 96.9827 90.4878 101.997C85.9866 107.011 80.5244 110.91 74.0002 113.747C67.5266 116.583 60.1426 118.001 51.8482 118.001C43.655 118.001 36.3216 116.583 29.7468 113.747C23.2226 110.91 17.7099 106.96 13.2087 101.997C8.70745 96.9827 5.26832 91.1077 2.89128 84.3718C2.33495 82.8018 1.8292 81.1304 1.37402 79.5098H25.4985C26.51 82.2447 27.7743 84.8276 29.3422 87.1573C31.6181 90.5506 34.6526 93.2855 38.3446 95.3113C42.0366 97.3372 46.5378 98.4008 51.7976 98.4008C57.1081 98.4008 61.5587 97.3878 65.2507 95.3113C68.9427 93.2855 71.9266 90.5506 74.2531 87.1573C75.8209 84.8276 77.1359 82.2447 78.0968 79.5098H102.322ZM323.134 79.5098V115.62H308.164L305.787 103.465C301.589 108.885 296.936 112.632 291.879 114.759C286.771 116.887 281.663 118.001 276.453 118.001C268.26 118.001 260.927 116.583 254.352 113.747C247.828 110.91 242.315 106.96 237.814 101.997C233.313 96.9827 229.873 91.1077 227.496 84.3718C226.94 82.8018 226.434 81.1304 225.979 79.5098H250.104C251.115 82.2447 252.379 84.8276 253.947 87.1573C256.223 90.5506 259.258 93.2855 262.95 95.3113C266.642 97.3372 271.143 98.4008 276.403 98.4008C284.191 98.4008 290.21 96.4256 294.458 92.4752C297.847 89.2845 300.123 84.9795 301.235 79.5098H323.134ZM143.946 79.5098V115.62H120.428V79.5098H143.946ZM206.204 79.5098C206.457 80.3707 206.71 81.2824 206.862 82.194C207.418 84.8783 207.772 87.6132 207.974 90.2974C208.075 92.0194 208.177 93.9946 208.278 96.2736C208.379 98.5527 208.531 100.933 208.783 103.313C209.036 105.694 209.441 107.973 209.997 110.151C210.554 112.278 211.363 114.101 212.475 115.62H188.958C187.643 112.227 186.884 108.175 186.581 103.465C186.277 98.7553 185.822 94.2478 185.215 89.9935C184.558 85.5367 183.395 82.0421 181.625 79.5098H206.204ZM393.383 79.5098V115.62H369.866V79.5098H393.383Z" fill="#FFB796"/>
<path d="M15.1305 62.695L12.1465 50.236H12.0454L9.06142 62.695H15.1305ZM15.9902 45.374L24.1329 73.1281H17.6592L16.2431 67.2531H8.04991L6.6338 73.1281H0.160156L8.30278 45.374H15.9902Z" fill="#FFE0CB"/>
<path d="M93.9268 53.8827H100.653C100.653 51.1478 99.7935 49.0713 98.1245 47.6026C96.405 46.1338 93.6739 45.4248 89.8301 45.4248C87.6048 45.4248 85.683 45.7287 84.2163 46.2858C82.699 46.8429 81.5358 47.7039 80.5749 48.8687C79.6645 49.9829 79.007 51.4517 78.653 53.123C78.299 54.845 78.0967 56.8202 78.0967 59.0486C78.0967 61.3783 78.2484 63.4042 78.5013 65.1768C78.7542 66.9494 79.2599 68.4181 80.0185 69.6336C80.7772 70.8491 81.8393 71.7101 83.2048 72.3179C84.5703 72.875 86.2899 73.1788 88.4646 73.1788C90.1336 73.1788 91.5497 72.9763 92.7635 72.5205C93.9773 72.0646 94.9888 71.3556 95.798 70.292H95.8992V72.7737H101.058V58.2889H89.6784V62.2899H94.3314V65.0248C94.3314 65.7339 94.1796 66.3923 93.8762 66.8988C93.5727 67.4559 93.2187 67.861 92.7635 68.2155C92.3083 68.5701 91.8532 68.8233 91.3474 69.0259C90.8417 69.1778 90.3865 69.2791 89.9313 69.2791C88.9198 69.2791 88.1106 69.0259 87.4531 68.5701C86.7956 68.0636 86.3405 67.4052 85.9864 66.4429C85.6324 65.5313 85.4301 64.4171 85.2784 63.1003C85.1266 61.7835 85.0761 60.3654 85.0761 58.7447C85.0761 55.4021 85.4301 52.9711 86.1887 51.553C86.9474 50.0843 88.1612 49.3752 89.8807 49.3752C90.5888 49.3752 91.1957 49.5271 91.7014 49.831C92.2072 50.1349 92.6118 50.4894 92.9658 50.8946C93.2693 51.3504 93.5222 51.8062 93.6739 52.3633C93.8762 52.8698 93.9268 53.3762 93.9268 53.8827Z" fill="#FFE0CB"/>
<path d="M172.773 45.374H152.594V73.1281H173.279V68.5193H159.877V61.0743H172.015V56.5162H159.877V49.9828H172.773V45.374Z" fill="#FFE0CB"/>
<path d="M232.958 45.374H224.562V73.1281H231.238V53.68H231.34L240.241 73.1281H248.535V45.374H241.859V64.3663H241.758L232.958 45.374Z" fill="#FFE0CB"/>
<path d="M314.284 54.9465H321.314C321.314 53.9842 321.213 52.9207 321.061 51.8065C320.859 50.6922 320.454 49.6287 319.696 48.6664C318.988 47.7041 317.875 46.8938 316.459 46.286C314.992 45.6783 313.02 45.3237 310.541 45.3237C307.912 45.3237 305.787 45.6783 304.22 46.3367C302.652 47.0457 301.438 48.008 300.629 49.2235C299.819 50.439 299.263 51.9077 299.01 53.6297C298.757 55.3517 298.656 57.2256 298.656 59.2514C298.656 61.3279 298.757 63.2018 299.01 64.8731C299.263 66.5951 299.769 68.0638 300.629 69.2793C301.438 70.4949 302.652 71.4571 304.22 72.1155C305.787 72.7739 307.912 73.0778 310.541 73.0778C312.868 73.0778 314.739 72.8246 316.206 72.2674C317.673 71.7103 318.785 70.9506 319.594 69.9884C320.404 69.0261 320.96 67.8612 321.213 66.5951C321.516 65.2783 321.668 63.9109 321.668 62.4421H314.638C314.638 63.9109 314.537 65.0757 314.284 65.9367C314.031 66.8483 313.728 67.5067 313.374 68.0132C312.969 68.5197 312.514 68.8235 311.958 68.9755C311.401 69.1274 310.845 69.2287 310.238 69.2287C309.479 69.2287 308.822 69.1274 308.266 68.8742C307.709 68.6209 307.203 68.1651 306.849 67.5067C306.495 66.7977 306.192 65.8354 306.04 64.6199C305.838 63.3538 305.787 61.7331 305.787 59.7072C305.787 57.7827 305.838 56.2126 305.99 54.8959C306.141 53.5791 306.344 52.5155 306.698 51.7052C307.001 50.8948 307.456 50.2871 308.063 49.9325C308.62 49.578 309.378 49.3754 310.238 49.3754C311.856 49.3754 312.918 49.8312 313.525 50.6922C313.981 51.5532 314.284 53.0219 314.284 54.9465Z" fill="#FFE0CB"/>
<path d="M375.53 45.374H367.337L376.693 62.1885V73.1281H383.976V62.1885L393.383 45.374H385.443L380.385 56.111H380.284L375.53 45.374Z" fill="#FFE0CB"/>
</svg>
